<?xml version="1.0" encoding="UTF-8"?>
<svg version="1.1" xmlns="http://www.w3.org/2000/svg" width="512" height="250">
<path d="M0 0 C3.53571429 0.53571429 3.53571429 0.53571429 5 2 C5.23192865 3.51469448 5.41215238 5.03754562 5.5625 6.5625 C5.68818359 7.80193359 5.68818359 7.80193359 5.81640625 9.06640625 C5.87699219 9.70449219 5.93757813 10.34257813 6 11 C6.45890625 10.28972656 6.9178125 9.57945313 7.390625 8.84765625 C8.00421875 7.92855469 8.6178125 7.00945312 9.25 6.0625 C9.85328125 5.14597656 10.4565625 4.22945313 11.078125 3.28515625 C13 1 13 1 15.109375 0.05859375 C15.73328125 0.03925781 16.3571875 0.01992187 17 0 C20.00617269 3.00617269 19.59585316 5.82381598 20 10 C20.37511719 9.36191406 20.75023437 8.72382812 21.13671875 8.06640625 C21.90435547 6.82697266 21.90435547 6.82697266 22.6875 5.5625 C23.18636719 4.73878906 23.68523437 3.91507812 24.19921875 3.06640625 C26 1 26 1 28.58203125 0.08984375 C29.37996094 0.06019531 30.17789063 0.03054687 31 0 C34.00617269 3.00617269 33.59585316 5.82381598 34 10 C34.38671875 9.36191406 34.7734375 8.72382812 35.171875 8.06640625 C35.69265625 7.24011719 36.2134375 6.41382812 36.75 5.5625 C37.51570313 4.32693359 37.51570313 4.32693359 38.296875 3.06640625 C40 1 40 1 42.015625 0.08984375 C44 0 44 0 47 2 C46.48226509 7.10765405 43.95839714 10.72226341 41.25 14.9375 C40.81945312 15.62779297 40.38890625 16.31808594 39.9453125 17.02929688 C37.2383694 21.30448396 34.32138329 25.1827987 31 29 C29.35 28.67 27.7 28.34 26 28 C25.34 25.36 24.68 22.72 24 20 C21.69 22.97 19.38 25.94 17 29 C15.35 28.67 13.7 28.34 12 28 C11.505 23.05 11.505 23.05 11 18 C10.54109375 18.71027344 10.0821875 19.42054688 9.609375 20.15234375 C8.99578125 21.07144531 8.3821875 21.99054688 7.75 22.9375 C7.14671875 23.85402344 6.5434375 24.77054688 5.921875 25.71484375 C4 28 4 28 1.890625 28.94140625 C0.95476562 28.97041016 0.95476562 28.97041016 0 29 C-3.00617269 25.99382731 -2.59585316 23.17618402 -3 19 C-3.37511719 19.63808594 -3.75023437 20.27617187 -4.13671875 20.93359375 C-4.64847656 21.75988281 -5.16023437 22.58617187 -5.6875 23.4375 C-6.43580078 24.67306641 -6.43580078 24.67306641 -7.19921875 25.93359375 C-9 28 -9 28 -11.58203125 28.91015625 C-12.37996094 28.93980469 -13.17789063 28.96945313 -14 29 C-16 27 -16 27 -16.02734375 24.484375 C-14.52538731 19.39028701 -11.62038158 15.54738651 -8.5625 11.25 C-7.96373047 10.38761719 -7.36496094 9.52523437 -6.74804688 8.63671875 C-2.36730925 2.36730925 -2.36730925 2.36730925 0 0 Z " fill="#0063FE" transform="translate(210,111)"/>
<path d="M0 0 C2.31 0 4.62 0 7 0 C7 2.64 7 5.28 7 8 C8.5778125 7.443125 8.5778125 7.443125 10.1875 6.875 C14.27768772 5.93626839 15.50457391 5.82716757 19 8 C21.61408059 10.26082646 22.81362468 11.95077595 23.421875 15.375 C23.6727523 20.05804293 23.56658087 22.26940888 20.625 26.0625 C16.48989386 29.11460215 14.14502438 29.18375087 9 29 C8.34 28.67 7.68 28.34 7 28 C4.69 28 2.38 28 0 28 C0 18.76 0 9.52 0 0 Z M9 13 C6.70362221 15.75895635 6.70362221 15.75895635 7.25 18.5625 C7.83808052 21.15000567 7.83808052 21.15000567 10 23 C12.55460214 23.07272562 12.55460214 23.07272562 15 22 C16.66390749 19.75691443 16.66390749 19.75691443 17 17 C16.0785608 14.57695632 16.0785608 14.57695632 14 13 C11.45709375 12.41649495 11.45709375 12.41649495 9 13 Z " fill="#000000" transform="translate(261,111)"/>
<path d="M0 0 C3.4475 3.4475 3.4475 3.4475 3.6875 6.6875 C0.3125 6.8125 0.3125 6.8125 -3.3125 6.6875 C-3.9725 6.0275 -4.6325 5.3675 -5.3125 4.6875 C-7.85440002 4.4374227 -7.85440002 4.4374227 -10.3125 4.6875 C-11.72827477 5.87174326 -11.72827477 5.87174326 -11.375 9.25 C-11.354375 10.384375 -11.33375 11.51875 -11.3125 12.6875 C-9.0025 12.6875 -6.6925 12.6875 -4.3125 12.6875 C-4.3125 12.0275 -4.3125 11.3675 -4.3125 10.6875 C-1.6725 10.6875 0.9675 10.6875 3.6875 10.6875 C1.76699482 15.2360649 0.33785158 17.78508344 -4.3125 19.6875 C-9.29172113 20.22098798 -12.37788376 19.85705197 -16.3125 16.6875 C-19.06449394 13.56857353 -19.54056081 11.22551787 -19.3125 7.1875 C-18.62710854 2.66843544 -17.03379804 0.45683808 -13.3125 -2.3125 C-8.60119879 -4.44018442 -3.930502 -3.06334088 0 0 Z " fill="#000000" transform="translate(305.3125,120.3125)"/>
<path d="M0 0 C2.31 0 4.62 0 7 0 C7 6.6 7 13.2 7 20 C4.69 20 2.38 20 0 20 C0 13.4 0 6.8 0 0 Z " fill="#000000" transform="translate(311,119)"/>
<path d="M0 0 C2.5 0.125 2.5 0.125 3.5 1.125 C3.625 3.625 3.625 3.625 3.5 6.125 C2.5 7.125 2.5 7.125 0 7.25 C-2.5 7.125 -2.5 7.125 -3.5 6.125 C-3.625 3.625 -3.625 3.625 -3.5 1.125 C-2.5 0.125 -2.5 0.125 0 0 Z " fill="#000000" transform="translate(314.5,109.875)"/>
</svg>
